<mxfile host="65bd71144e">
    <diagram id="ztM1EE4R9Wr7d3iA4V1v" name="第1頁">
        <mxGraphModel dx="1152" dy="787" grid="1" gridSize="10" guides="1" tooltips="1" connect="1" arrows="1" fold="1" page="1" pageScale="1" pageWidth="827" pageHeight="1169" math="0" shadow="0">
            <root>
                <mxCell id="0"/>
                <mxCell id="1" parent="0"/>
                <mxCell id="12" value="" style="ellipse;whiteSpace=wrap;html=1;rounded=0;shadow=0;glass=1;sketch=0;fontSize=29;fillColor=#bac8d3;gradientDirection=north;strokeColor=#23445d;" vertex="1" parent="1">
                    <mxGeometry x="44" y="150" width="680" height="500" as="geometry"/>
                </mxCell>
                <mxCell id="6" value="" style="group" vertex="1" connectable="0" parent="1">
                    <mxGeometry x="120" y="370" width="120" height="60" as="geometry"/>
                </mxCell>
                <mxCell id="2" value="" style="rounded=0;whiteSpace=wrap;html=1;fillColor=#259ad4;fontColor=#ffffff;strokeColor=#006EAF;glass=1;shadow=0;gradientColor=default;gradientDirection=north;" vertex="1" parent="6">
                    <mxGeometry width="120" height="60" as="geometry"/>
                </mxCell>
                <mxCell id="5" value="老師" style="text;align=center;html=1;verticalAlign=middle;whiteSpace=wrap;rounded=0;shadow=0;glass=1;sketch=0;fontSize=27;fontColor=#000000;" vertex="1" parent="6">
                    <mxGeometry x="30" y="15" width="60" height="30" as="geometry"/>
                </mxCell>
                <mxCell id="7" value="" style="group" vertex="1" connectable="0" parent="1">
                    <mxGeometry x="530" y="370" width="120" height="60" as="geometry"/>
                </mxCell>
                <mxCell id="8" value="" style="rounded=0;whiteSpace=wrap;html=1;fillColor=#259ad4;fontColor=#ffffff;strokeColor=#006EAF;glass=1;shadow=0;gradientColor=default;gradientDirection=north;" vertex="1" parent="7">
                    <mxGeometry width="120" height="60" as="geometry"/>
                </mxCell>
                <mxCell id="9" value="學生" style="text;align=center;html=1;verticalAlign=middle;whiteSpace=wrap;rounded=0;shadow=0;glass=1;sketch=0;fontSize=27;fontColor=#000000;" vertex="1" parent="7">
                    <mxGeometry x="30" y="15" width="60" height="30" as="geometry"/>
                </mxCell>
                <mxCell id="11" value="" style="endArrow=none;html=1;labelBorderColor=none;strokeWidth=6;fontSize=29;fontColor=#000000;entryX=0;entryY=0.5;entryDx=0;entryDy=0;strokeColor=#000000;" edge="1" parent="1" target="8">
                    <mxGeometry width="50" height="50" relative="1" as="geometry">
                        <mxPoint x="240" y="400" as="sourcePoint"/>
                        <mxPoint x="450" y="380" as="targetPoint"/>
                    </mxGeometry>
                </mxCell>
                <mxCell id="13" value="" style="curved=1;endArrow=classic;html=1;labelBorderColor=none;strokeColor=#33FFFF;strokeWidth=2;fontSize=29;fontColor=#000000;dashed=1;" edge="1" parent="1">
                    <mxGeometry width="50" height="50" relative="1" as="geometry">
                        <mxPoint x="260" y="480" as="sourcePoint"/>
                        <mxPoint x="340" y="380" as="targetPoint"/>
                        <Array as="points">
                            <mxPoint x="270" y="410"/>
                        </Array>
                    </mxGeometry>
                </mxCell>
                <mxCell id="14" value="教導" style="text;strokeColor=none;align=center;fillColor=none;html=1;verticalAlign=middle;whiteSpace=wrap;rounded=0;shadow=0;glass=1;sketch=0;fontSize=29;fontColor=#000000;" vertex="1" parent="1">
                    <mxGeometry x="354" y="360" width="60" height="30" as="geometry"/>
                </mxCell>
                <mxCell id="15" value="關聯名稱" style="text;strokeColor=none;align=center;fillColor=none;html=1;verticalAlign=middle;whiteSpace=wrap;rounded=0;shadow=0;glass=1;sketch=0;fontSize=29;fontColor=#000000;" vertex="1" parent="1">
                    <mxGeometry x="200" y="490" width="120" height="30" as="geometry"/>
                </mxCell>
                <mxCell id="17" value="" style="curved=1;endArrow=classic;html=1;dashed=1;labelBorderColor=none;strokeColor=#33FFFF;strokeWidth=2;fontSize=29;fontColor=#000000;" edge="1" parent="1">
                    <mxGeometry width="50" height="50" relative="1" as="geometry">
                        <mxPoint x="530" y="510" as="sourcePoint"/>
                        <mxPoint x="480" y="440" as="targetPoint"/>
                        <Array as="points">
                            <mxPoint x="530" y="510"/>
                            <mxPoint x="480" y="510"/>
                        </Array>
                    </mxGeometry>
                </mxCell>
                <mxCell id="19" value="" style="triangle;whiteSpace=wrap;html=1;rounded=0;shadow=0;glass=1;sketch=0;fontSize=29;fillColor=#1ba1e2;gradientDirection=north;rotation=120;strokeColor=#006EAF;fontColor=#ffffff;" vertex="1" parent="1">
                    <mxGeometry x="430" y="340" width="50" height="70" as="geometry"/>
                </mxCell>
                <mxCell id="20" value="" style="endArrow=classic;html=1;dashed=1;labelBorderColor=none;strokeColor=#33ffff;strokeWidth=2;fontSize=29;fontColor=#000000;fillColor=#b0e3e6;" edge="1" parent="1">
                    <mxGeometry width="50" height="50" relative="1" as="geometry">
                        <mxPoint x="610" y="310" as="sourcePoint"/>
                        <mxPoint x="470" y="350" as="targetPoint"/>
                        <Array as="points">
                            <mxPoint x="550" y="290"/>
                            <mxPoint x="530" y="290"/>
                            <mxPoint x="510" y="300"/>
                        </Array>
                    </mxGeometry>
                </mxCell>
                <mxCell id="21" value="方向箭頭" style="text;strokeColor=none;align=center;fillColor=none;html=1;verticalAlign=middle;whiteSpace=wrap;rounded=0;shadow=0;glass=1;sketch=0;fontSize=29;fontColor=#000000;" vertex="1" parent="1">
                    <mxGeometry x="550" y="320" width="130" height="30" as="geometry"/>
                </mxCell>
                <mxCell id="23" value="多重性" style="text;strokeColor=none;align=center;fillColor=none;html=1;verticalAlign=middle;whiteSpace=wrap;rounded=0;shadow=0;glass=1;sketch=0;fontSize=29;fontColor=#000000;" vertex="1" parent="1">
                    <mxGeometry x="520" y="520" width="100" height="30" as="geometry"/>
                </mxCell>
                <mxCell id="24" value="1" style="text;strokeColor=none;align=center;fillColor=none;html=1;verticalAlign=middle;whiteSpace=wrap;rounded=0;shadow=0;glass=1;sketch=0;fontSize=29;fontColor=#000000;" vertex="1" parent="1">
                    <mxGeometry x="230" y="410" width="60" height="30" as="geometry"/>
                </mxCell>
                <mxCell id="25" value="1..*" style="text;strokeColor=none;align=center;fillColor=none;html=1;verticalAlign=middle;whiteSpace=wrap;rounded=0;shadow=0;glass=1;sketch=0;fontSize=29;fontColor=#000000;" vertex="1" parent="1">
                    <mxGeometry x="450" y="410" width="60" height="30" as="geometry"/>
                </mxCell>
            </root>
        </mxGraphModel>
    </diagram>
</mxfile>